# xmcd
#
# Track frame offsets: 
#        150
#        15383
#        34968
#        49554
#        64754
#        78253
#        98188
#        116751
#        132739
#        148971
#        166657
#        181388
#
# Disc length: 2556 seconds
#
# Revision: 2
# Processed by: cddbd v1.5.2PL0 Copyright (c) Steve Scherf et al.
# Submitted via: ExactAudioCopy v1.0b3
#
DISCID=a209fa0c
DTITLE=Edwyn Collins - Losing Sleep
DYEAR=2010
DGENRE=Britpop
TTITLE0=Losing Sleep
TTITLE1=What Is My Role?
TTITLE2=Do It Again
TTITLE3=Humble
TTITLE4=Come Tomorrow, Come Today
TTITLE5=Bored
TTITLE6=In Your Eyes
TTITLE7=I Still Believe In You
TTITLE8=Over The Hill
TTITLE9=It Dawns On me
TTITLE10=All My Days
TTITLE11=Searching Fo The Truth
EXTD=YEAR: 2010
EXTT0=
EXTT1=
EXTT2=
EXTT3=
EXTT4=
EXTT5=
EXTT6=
EXTT7=
EXTT8=
EXTT9=
EXTT10=
EXTT11=
PLAYORDER=
